<mxfile host="Electron" agent="Mozilla/5.0 (Windows NT 10.0; Win64; x64) AppleWebKit/537.36 (KHTML, like Gecko) draw.io/25.0.2 Chrome/128.0.6613.186 Electron/32.2.5 Safari/537.36" version="25.0.2">
  <diagram name="Seite-1" id="mXx1O9WSop4FH8dhHn2K">
    <mxGraphModel dx="1728" dy="997" grid="1" gridSize="10" guides="1" tooltips="1" connect="1" arrows="1" fold="1" page="1" pageScale="1" pageWidth="1169" pageHeight="1654" math="0" shadow="0">
      <root>
        <mxCell id="0" />
        <mxCell id="1" parent="0" />
        <mxCell id="0moDRzXRXeSWjDxv3Y6A-1" value="" style="group;fillColor=#dae8fc;strokeColor=#6c8ebf;" vertex="1" connectable="0" parent="1">
          <mxGeometry x="800" y="374" width="160" height="36" as="geometry" />
        </mxCell>
        <mxCell id="0moDRzXRXeSWjDxv3Y6A-2" value="" style="rounded=1;whiteSpace=wrap;html=1;strokeWidth=4;fillColor=#dae8fc;strokeColor=#6c8ebf;" vertex="1" parent="0moDRzXRXeSWjDxv3Y6A-1">
          <mxGeometry width="160" height="36" as="geometry" />
        </mxCell>
        <mxCell id="0moDRzXRXeSWjDxv3Y6A-3" value="" style="ellipse;whiteSpace=wrap;html=1;aspect=fixed;strokeWidth=3;fillColor=#dae8fc;strokeColor=#6c8ebf;" vertex="1" parent="0moDRzXRXeSWjDxv3Y6A-1">
          <mxGeometry x="20" y="12" width="12" height="12" as="geometry" />
        </mxCell>
        <mxCell id="0moDRzXRXeSWjDxv3Y6A-4" value="" style="rounded=1;whiteSpace=wrap;html=1;strokeWidth=3;fillColor=#dae8fc;strokeColor=#6c8ebf;" vertex="1" parent="0moDRzXRXeSWjDxv3Y6A-1">
          <mxGeometry x="54" y="6" width="28" height="10" as="geometry" />
        </mxCell>
        <mxCell id="0moDRzXRXeSWjDxv3Y6A-5" value="" style="rounded=1;whiteSpace=wrap;html=1;strokeWidth=3;fillColor=#dae8fc;strokeColor=#6c8ebf;" vertex="1" parent="0moDRzXRXeSWjDxv3Y6A-1">
          <mxGeometry x="88" y="6" width="28" height="10" as="geometry" />
        </mxCell>
        <mxCell id="0moDRzXRXeSWjDxv3Y6A-6" value="" style="rounded=1;whiteSpace=wrap;html=1;strokeWidth=3;fillColor=#dae8fc;strokeColor=#6c8ebf;" vertex="1" parent="0moDRzXRXeSWjDxv3Y6A-1">
          <mxGeometry x="122" y="6" width="28" height="10" as="geometry" />
        </mxCell>
        <mxCell id="0moDRzXRXeSWjDxv3Y6A-7" value="" style="rounded=1;whiteSpace=wrap;html=1;strokeWidth=3;fillColor=#dae8fc;strokeColor=#6c8ebf;" vertex="1" parent="0moDRzXRXeSWjDxv3Y6A-1">
          <mxGeometry x="54" y="20" width="28" height="10" as="geometry" />
        </mxCell>
        <mxCell id="0moDRzXRXeSWjDxv3Y6A-8" value="" style="rounded=1;whiteSpace=wrap;html=1;strokeWidth=3;fillColor=#dae8fc;strokeColor=#6c8ebf;" vertex="1" parent="0moDRzXRXeSWjDxv3Y6A-1">
          <mxGeometry x="88" y="20" width="28" height="10" as="geometry" />
        </mxCell>
        <mxCell id="0moDRzXRXeSWjDxv3Y6A-9" value="" style="rounded=1;whiteSpace=wrap;html=1;strokeWidth=3;fillColor=#dae8fc;strokeColor=#6c8ebf;" vertex="1" parent="0moDRzXRXeSWjDxv3Y6A-1">
          <mxGeometry x="122" y="20" width="28" height="10" as="geometry" />
        </mxCell>
        <mxCell id="0moDRzXRXeSWjDxv3Y6A-10" value="" style="html=1;shadow=0;dashed=0;shape=mxgraph.bootstrap.rrect;rSize=5;strokeColor=#D89F20;html=1;whiteSpace=wrap;fillColor=#FFBC26;fontColor=#ffffff;verticalAlign=bottom;align=left;spacing=20;spacingBottom=0;fontSize=14;" vertex="1" parent="1">
          <mxGeometry x="440" y="270" width="280" height="180" as="geometry" />
        </mxCell>
        <mxCell id="0moDRzXRXeSWjDxv3Y6A-11" value="Remote Server" style="html=1;shadow=0;dashed=0;shape=mxgraph.bootstrap.topButton;rSize=5;perimeter=none;whiteSpace=wrap;fillColor=#F7B625;strokeColor=#D89F20;fontColor=#ffffff;resizeWidth=1;fontSize=18;align=left;spacing=20;" vertex="1" parent="0moDRzXRXeSWjDxv3Y6A-10">
          <mxGeometry width="280" height="50" relative="1" as="geometry" />
        </mxCell>
        <mxCell id="0moDRzXRXeSWjDxv3Y6A-20" value="&lt;font style=&quot;font-size: 14px;&quot;&gt;send_nsca&lt;/font&gt;" style="rounded=1;whiteSpace=wrap;html=1;fillColor=#1ba1e2;fontColor=#ffffff;strokeColor=#006EAF;" vertex="1" parent="0moDRzXRXeSWjDxv3Y6A-10">
          <mxGeometry x="10" y="80" width="120" height="60" as="geometry" />
        </mxCell>
        <mxCell id="0moDRzXRXeSWjDxv3Y6A-23" style="edgeStyle=orthogonalEdgeStyle;rounded=0;orthogonalLoop=1;jettySize=auto;html=1;entryX=1;entryY=0.5;entryDx=0;entryDy=0;" edge="1" parent="0moDRzXRXeSWjDxv3Y6A-10" source="0moDRzXRXeSWjDxv3Y6A-21" target="0moDRzXRXeSWjDxv3Y6A-20">
          <mxGeometry relative="1" as="geometry" />
        </mxCell>
        <mxCell id="0moDRzXRXeSWjDxv3Y6A-21" value="&lt;font style=&quot;font-size: 14px;&quot;&gt;TCP Wrappers&lt;/font&gt;&lt;div&gt;&lt;font style=&quot;font-size: 14px;&quot;&gt;&lt;br&gt;&lt;/font&gt;&lt;/div&gt;&lt;div&gt;&lt;font style=&quot;font-size: 14px;&quot;&gt;&lt;br&gt;&lt;/font&gt;&lt;/div&gt;&lt;div&gt;&lt;br&gt;&lt;/div&gt;&lt;div&gt;&lt;font style=&quot;font-size: 14px;&quot;&gt;&lt;br&gt;&lt;/font&gt;&lt;/div&gt;" style="rounded=1;whiteSpace=wrap;html=1;fillColor=#fad7ac;strokeColor=#b46504;" vertex="1" parent="0moDRzXRXeSWjDxv3Y6A-10">
          <mxGeometry x="150" y="60" width="120" height="100" as="geometry" />
        </mxCell>
        <mxCell id="0moDRzXRXeSWjDxv3Y6A-22" value="&lt;font style=&quot;font-size: 14px;&quot;&gt;SSHD&lt;/font&gt;" style="rounded=1;whiteSpace=wrap;html=1;fillColor=#d5e8d4;strokeColor=#82b366;" vertex="1" parent="0moDRzXRXeSWjDxv3Y6A-10">
          <mxGeometry x="170" y="92" width="80" height="60" as="geometry" />
        </mxCell>
        <mxCell id="0moDRzXRXeSWjDxv3Y6A-12" value="&lt;br style=&quot;font-size: 14px&quot;&gt;" style="html=1;shadow=0;dashed=0;shape=mxgraph.bootstrap.rrect;rSize=5;strokeColor=#0071D5;html=1;whiteSpace=wrap;fillColor=#0085FC;fontColor=#ffffff;verticalAlign=bottom;align=left;spacing=20;spacingBottom=0;fontSize=14;" vertex="1" parent="1">
          <mxGeometry x="100" y="270" width="280" height="180" as="geometry" />
        </mxCell>
        <mxCell id="0moDRzXRXeSWjDxv3Y6A-13" value="Monitoring Server" style="html=1;shadow=0;dashed=0;shape=mxgraph.bootstrap.topButton;rSize=5;perimeter=none;whiteSpace=wrap;fillColor=#0081F4;strokeColor=#0071D5;fontColor=#ffffff;resizeWidth=1;fontSize=18;align=left;spacing=20;" vertex="1" parent="0moDRzXRXeSWjDxv3Y6A-12">
          <mxGeometry width="280" height="50" relative="1" as="geometry" />
        </mxCell>
        <mxCell id="0moDRzXRXeSWjDxv3Y6A-14" value="&lt;font style=&quot;font-size: 14px;&quot;&gt;Naemon&lt;/font&gt;" style="rounded=1;whiteSpace=wrap;html=1;fillColor=#0050ef;fontColor=#ffffff;strokeColor=#001DBC;" vertex="1" parent="0moDRzXRXeSWjDxv3Y6A-12">
          <mxGeometry x="20" y="80" width="120" height="60" as="geometry" />
        </mxCell>
        <mxCell id="0moDRzXRXeSWjDxv3Y6A-25" style="edgeStyle=orthogonalEdgeStyle;rounded=0;orthogonalLoop=1;jettySize=auto;html=1;entryX=1;entryY=0.5;entryDx=0;entryDy=0;" edge="1" parent="0moDRzXRXeSWjDxv3Y6A-12" source="0moDRzXRXeSWjDxv3Y6A-15" target="0moDRzXRXeSWjDxv3Y6A-14">
          <mxGeometry relative="1" as="geometry" />
        </mxCell>
        <mxCell id="0moDRzXRXeSWjDxv3Y6A-15" value="&lt;font style=&quot;font-size: 14px;&quot;&gt;NSCA&lt;/font&gt;" style="rounded=1;whiteSpace=wrap;html=1;fillColor=#1ba1e2;fontColor=#ffffff;strokeColor=#006EAF;" vertex="1" parent="0moDRzXRXeSWjDxv3Y6A-12">
          <mxGeometry x="180" y="80" width="70" height="60" as="geometry" />
        </mxCell>
        <mxCell id="0moDRzXRXeSWjDxv3Y6A-24" style="edgeStyle=orthogonalEdgeStyle;rounded=0;orthogonalLoop=1;jettySize=auto;html=1;entryX=1;entryY=0.5;entryDx=0;entryDy=0;" edge="1" parent="1" source="0moDRzXRXeSWjDxv3Y6A-20" target="0moDRzXRXeSWjDxv3Y6A-15">
          <mxGeometry relative="1" as="geometry" />
        </mxCell>
        <mxCell id="0moDRzXRXeSWjDxv3Y6A-26" style="edgeStyle=orthogonalEdgeStyle;rounded=0;orthogonalLoop=1;jettySize=auto;html=1;entryX=1;entryY=0.5;entryDx=0;entryDy=0;strokeColor=#FF3333;strokeWidth=3;" edge="1" parent="1" source="0moDRzXRXeSWjDxv3Y6A-28" target="0moDRzXRXeSWjDxv3Y6A-22">
          <mxGeometry relative="1" as="geometry" />
        </mxCell>
        <mxCell id="0moDRzXRXeSWjDxv3Y6A-29" value="" style="edgeStyle=orthogonalEdgeStyle;rounded=0;orthogonalLoop=1;jettySize=auto;html=1;entryX=1;entryY=0.5;entryDx=0;entryDy=0;strokeColor=#FF3333;strokeWidth=3;endArrow=none;endFill=0;" edge="1" parent="1" source="0moDRzXRXeSWjDxv3Y6A-2" target="0moDRzXRXeSWjDxv3Y6A-28">
          <mxGeometry relative="1" as="geometry">
            <mxPoint x="800" y="392" as="sourcePoint" />
            <mxPoint x="690" y="392" as="targetPoint" />
          </mxGeometry>
        </mxCell>
        <mxCell id="0moDRzXRXeSWjDxv3Y6A-28" value="" style="verticalLabelPosition=bottom;verticalAlign=top;html=1;shape=mxgraph.basic.x;fillColor=#f8cecc;strokeColor=#b85450;" vertex="1" parent="1">
          <mxGeometry x="740" y="382" width="20" height="20" as="geometry" />
        </mxCell>
      </root>
    </mxGraphModel>
  </diagram>
</mxfile>
